<svg width="159" height="45" viewBox="0 0 159 45" fill="none" xmlns="http://www.w3.org/2000/svg">
<rect x="0.852539" y="0.352539" width="44.2951" height="44.2951" rx="3.66681" fill="#4786FF"/>
<path d="M19.1957 11.7959C25.1807 13.1491 28.4001 17.2387 28.3771 23.3302C28.3645 26.6724 28.3749 30.0147 28.3749 33.4154C26.9376 33.4154 25.5817 33.4154 24.0828 33.4154C24.0828 32.5989 24.0829 31.7888 24.0828 30.9787C24.0826 28.1332 24.1119 25.2874 24.0744 22.4424C24.0317 19.2063 21.5439 16.4135 18.4474 16.0491C14.989 15.6422 11.9663 17.6218 11.1105 20.8541C10.2535 24.0911 11.8482 27.3505 14.9319 28.6484C15.2509 28.7826 15.5897 28.8698 16.0331 29.0164C16.0331 26.8309 16.0331 24.7628 16.0331 22.6322C17.3248 22.6322 18.5291 22.6322 19.7877 22.6322C19.7877 26.2031 19.7877 29.7592 19.7876 33.3155C13.2965 34.3798 8.16788 30.5047 6.85969 24.973C5.49408 19.1985 9.21794 13.2314 15.0268 11.9913C16.3398 11.711 17.7403 11.8404 19.1957 11.7959Z" fill="white"/>
<path d="M39.2706 31.6122C39.2706 32.2512 39.2706 32.7868 39.2706 33.4007C37.8452 33.4007 36.4665 33.4007 34.9674 33.4007C34.9674 32.6657 34.9657 31.9567 34.9676 31.2478C34.9759 28.2952 34.9898 25.3426 34.9931 22.3901C34.9983 17.8447 31.9353 13.6827 27.5083 12.2087C27.244 12.1207 26.9793 12.0338 26.6357 11.9203C31.9102 10.6346 37.7396 14.5086 38.9964 20.0836C39.1845 20.9182 39.2577 21.7933 39.2663 22.6509C39.2959 25.6033 39.2733 28.5562 39.2706 31.6122Z" fill="white"/>
<path d="M68.134 12.785C67.7985 12.1669 67.3128 11.6989 66.6771 11.381C66.059 11.0455 65.3261 10.8777 64.4784 10.8777C63.0127 10.8777 61.8383 11.3634 60.9553 12.3346C60.0723 13.2883 59.6308 14.5686 59.6308 16.1756C59.6308 17.8886 60.09 19.2308 61.0083 20.2021C61.9442 21.1557 63.2246 21.6325 64.8493 21.6325C65.9618 21.6325 66.8978 21.35 67.6572 20.7848C68.4342 20.2197 68.9993 19.4074 69.3525 18.3478H63.6043V15.0101H73.4584V19.222C73.1229 20.3522 72.5489 21.4029 71.7366 22.3742C70.9419 23.3455 69.9265 24.1314 68.6903 24.7318C67.4541 25.3322 66.059 25.6324 64.5049 25.6324C62.6683 25.6324 61.0259 25.2351 59.5778 24.4404C58.1474 23.6281 57.026 22.5067 56.2137 21.0762C55.419 19.6458 55.0216 18.0123 55.0216 16.1756C55.0216 14.339 55.419 12.7055 56.2137 11.2751C57.026 9.82696 58.1474 8.70556 59.5778 7.91087C61.0083 7.09852 62.6418 6.69235 64.4784 6.69235C66.7036 6.69235 68.5755 7.23097 70.0942 8.30821C71.6306 9.38546 72.6461 10.8777 73.1405 12.785H68.134ZM78.2456 9.18237C77.4509 9.18237 76.7975 8.9528 76.2854 8.49364C75.7909 8.01683 75.5437 7.43406 75.5437 6.74533C75.5437 6.03893 75.7909 5.45616 76.2854 4.99701C76.7975 4.52019 77.4509 4.28179 78.2456 4.28179C79.0226 4.28179 79.6584 4.52019 80.1529 4.99701C80.665 5.45616 80.9211 6.03893 80.9211 6.74533C80.9211 7.43406 80.665 8.01683 80.1529 8.49364C79.6584 8.9528 79.0226 9.18237 78.2456 9.18237ZM80.4972 10.7188V25.5H75.9675V10.7188H80.4972ZM88.3096 13.1823C88.8394 12.37 89.5016 11.7342 90.2963 11.2751C91.091 10.7982 91.974 10.5598 92.9453 10.5598V15.3545H91.7003C90.57 15.3545 89.7224 15.6017 89.1573 16.0962C88.5922 16.573 88.3096 17.4207 88.3096 18.6392V25.5H83.7799V10.7188H88.3096V13.1823ZM113.971 10.5598C115.808 10.5598 117.265 11.1161 118.342 12.2287C119.437 13.3412 119.984 14.8865 119.984 16.8644V25.5H115.481V17.4736C115.481 16.52 115.225 15.7871 114.713 15.275C114.218 14.7452 113.53 14.4803 112.647 14.4803C111.764 14.4803 111.066 14.7452 110.554 15.275C110.059 15.7871 109.812 16.52 109.812 17.4736V25.5H105.309V17.4736C105.309 16.52 105.053 15.7871 104.541 15.275C104.046 14.7452 103.358 14.4803 102.475 14.4803C101.592 14.4803 100.894 14.7452 100.382 15.275C99.8874 15.7871 99.6401 16.52 99.6401 17.4736V25.5H95.1104V10.7188H99.6401V12.573C100.099 11.955 100.7 11.4693 101.441 11.1161C102.183 10.7453 103.022 10.5598 103.958 10.5598C105.071 10.5598 106.059 10.7982 106.925 11.2751C107.808 11.7519 108.497 12.4318 108.991 13.3148C109.503 12.5024 110.201 11.8402 111.084 11.328C111.967 10.8159 112.929 10.5598 113.971 10.5598ZM122.252 18.0829C122.252 16.5642 122.534 15.2308 123.099 14.083C123.682 12.9351 124.468 12.0521 125.457 11.434C126.446 10.8159 127.549 10.5069 128.768 10.5069C129.81 10.5069 130.719 10.7188 131.496 11.1426C132.291 11.5664 132.9 12.1227 133.324 12.8115V10.7188H137.854V25.5H133.324V23.4073C132.883 24.096 132.265 24.6523 131.47 25.0762C130.693 25.5 129.783 25.7119 128.741 25.7119C127.541 25.7119 126.446 25.4029 125.457 24.7848C124.468 24.149 123.682 23.2572 123.099 22.1093C122.534 20.9438 122.252 19.6016 122.252 18.0829ZM133.324 18.1094C133.324 16.9792 133.006 16.0873 132.371 15.4339C131.752 14.7805 130.993 14.4538 130.092 14.4538C129.192 14.4538 128.424 14.7805 127.788 15.4339C127.17 16.0697 126.861 16.9527 126.861 18.0829C126.861 19.2131 127.17 20.1138 127.788 20.7848C128.424 21.4383 129.192 21.765 130.092 21.765C130.993 21.765 131.752 21.4383 132.371 20.7848C133.006 20.1314 133.324 19.2396 133.324 18.1094ZM150.137 10.5598C151.868 10.5598 153.246 11.1249 154.27 12.2552C155.312 13.3677 155.833 14.9041 155.833 16.8644V25.5H151.33V17.4736C151.33 16.4847 151.073 15.7165 150.561 15.169C150.049 14.6216 149.36 14.3479 148.495 14.3479C147.63 14.3479 146.941 14.6216 146.429 15.169C145.917 15.7165 145.661 16.4847 145.661 17.4736V25.5H141.131V10.7188H145.661V12.679C146.12 12.0256 146.738 11.5135 147.515 11.1426C148.292 10.7541 149.166 10.5598 150.137 10.5598Z" fill="#111111"/>
<path d="M62.4995 34.916V35.82H61.0115V40.5H59.8915V35.82H58.4035V34.916H62.4995ZM67.6366 35.82V37.22H69.5166V38.108H67.6366V39.588H69.7566V40.5H66.5166V34.908H69.7566V35.82H67.6366ZM73.7025 37.7C73.7025 37.1507 73.8251 36.66 74.0705 36.228C74.3211 35.7907 74.6598 35.452 75.0865 35.212C75.5185 34.9667 76.0011 34.844 76.5345 34.844C77.1585 34.844 77.7051 35.004 78.1745 35.324C78.6438 35.644 78.9718 36.0867 79.1585 36.652H77.8705C77.7425 36.3853 77.5611 36.1853 77.3265 36.052C77.0971 35.9187 76.8305 35.852 76.5265 35.852C76.2011 35.852 75.9105 35.9293 75.6545 36.084C75.4038 36.2333 75.2065 36.4467 75.0625 36.724C74.9238 37.0013 74.8545 37.3267 74.8545 37.7C74.8545 38.068 74.9238 38.3933 75.0625 38.676C75.2065 38.9533 75.4038 39.1693 75.6545 39.324C75.9105 39.4733 76.2011 39.548 76.5265 39.548C76.8305 39.548 77.0971 39.4813 77.3265 39.348C77.5611 39.2093 77.7425 39.0067 77.8705 38.74H79.1585C78.9718 39.3107 78.6438 39.756 78.1745 40.076C77.7105 40.3907 77.1638 40.548 76.5345 40.548C76.0011 40.548 75.5185 40.428 75.0865 40.188C74.6598 39.9427 74.3211 39.604 74.0705 39.172C73.8251 38.74 73.7025 38.2493 73.7025 37.7ZM87.9471 34.916V40.5H86.8271V38.124H84.4351V40.5H83.3151V34.916H84.4351V37.212H86.8271V34.916H87.9471ZM97.0255 40.5H95.9055L93.3695 36.668V40.5H92.2495V34.908H93.3695L95.9055 38.748V34.908H97.0255V40.5ZM103.924 40.556C103.402 40.556 102.922 40.4333 102.484 40.188C102.047 39.9427 101.7 39.604 101.444 39.172C101.188 38.7347 101.06 38.2413 101.06 37.692C101.06 37.148 101.188 36.66 101.444 36.228C101.7 35.7907 102.047 35.4493 102.484 35.204C102.922 34.9587 103.402 34.836 103.924 34.836C104.452 34.836 104.932 34.9587 105.364 35.204C105.802 35.4493 106.146 35.7907 106.396 36.228C106.652 36.66 106.78 37.148 106.78 37.692C106.78 38.2413 106.652 38.7347 106.396 39.172C106.146 39.604 105.802 39.9427 105.364 40.188C104.927 40.4333 104.447 40.556 103.924 40.556ZM103.924 39.556C104.26 39.556 104.556 39.4813 104.812 39.332C105.068 39.1773 105.268 38.9587 105.412 38.676C105.556 38.3933 105.628 38.0653 105.628 37.692C105.628 37.3187 105.556 36.9933 105.412 36.716C105.268 36.4333 105.068 36.2173 104.812 36.068C104.556 35.9187 104.26 35.844 103.924 35.844C103.588 35.844 103.29 35.9187 103.028 36.068C102.772 36.2173 102.572 36.4333 102.428 36.716C102.284 36.9933 102.212 37.3187 102.212 37.692C102.212 38.0653 102.284 38.3933 102.428 38.676C102.572 38.9587 102.772 39.1773 103.028 39.332C103.29 39.4813 103.588 39.556 103.924 39.556ZM111.934 39.612H113.774V40.5H110.814V34.916H111.934V39.612ZM120.277 40.556C119.755 40.556 119.275 40.4333 118.837 40.188C118.4 39.9427 118.053 39.604 117.797 39.172C117.541 38.7347 117.413 38.2413 117.413 37.692C117.413 37.148 117.541 36.66 117.797 36.228C118.053 35.7907 118.4 35.4493 118.837 35.204C119.275 34.9587 119.755 34.836 120.277 34.836C120.805 34.836 121.285 34.9587 121.717 35.204C122.155 35.4493 122.499 35.7907 122.749 36.228C123.005 36.66 123.133 37.148 123.133 37.692C123.133 38.2413 123.005 38.7347 122.749 39.172C122.499 39.604 122.155 39.9427 121.717 40.188C121.28 40.4333 120.8 40.556 120.277 40.556ZM120.277 39.556C120.613 39.556 120.909 39.4813 121.165 39.332C121.421 39.1773 121.621 38.9587 121.765 38.676C121.909 38.3933 121.981 38.0653 121.981 37.692C121.981 37.3187 121.909 36.9933 121.765 36.716C121.621 36.4333 121.421 36.2173 121.165 36.068C120.909 35.9187 120.613 35.844 120.277 35.844C119.941 35.844 119.643 35.9187 119.381 36.068C119.125 36.2173 118.925 36.4333 118.781 36.716C118.637 36.9933 118.565 37.3187 118.565 37.692C118.565 38.0653 118.637 38.3933 118.781 38.676C118.925 38.9587 119.125 39.1773 119.381 39.332C119.643 39.4813 119.941 39.556 120.277 39.556ZM131.055 36.596C130.927 36.3613 130.751 36.1827 130.527 36.06C130.303 35.9373 130.041 35.876 129.743 35.876C129.412 35.876 129.119 35.9507 128.863 36.1C128.607 36.2493 128.407 36.4627 128.263 36.74C128.119 37.0173 128.047 37.3373 128.047 37.7C128.047 38.0733 128.119 38.3987 128.263 38.676C128.412 38.9533 128.617 39.1667 128.879 39.316C129.14 39.4653 129.444 39.54 129.791 39.54C130.217 39.54 130.567 39.428 130.839 39.204C131.111 38.9747 131.289 38.6573 131.375 38.252H129.455V37.396H132.479V38.372C132.404 38.7613 132.244 39.1213 131.999 39.452C131.753 39.7827 131.436 40.0493 131.047 40.252C130.663 40.4493 130.231 40.548 129.751 40.548C129.212 40.548 128.724 40.428 128.287 40.188C127.855 39.9427 127.513 39.604 127.263 39.172C127.017 38.74 126.895 38.2493 126.895 37.7C126.895 37.1507 127.017 36.66 127.263 36.228C127.513 35.7907 127.855 35.452 128.287 35.212C128.724 34.9667 129.209 34.844 129.743 34.844C130.372 34.844 130.919 34.9987 131.383 35.308C131.847 35.612 132.167 36.0413 132.343 36.596H131.055ZM137.627 34.916V40.5H136.507V34.916H137.627ZM143.054 35.82V37.22H144.934V38.108H143.054V39.588H145.174V40.5H141.934V34.908H145.174V35.82H143.054ZM151.32 40.556C150.93 40.556 150.578 40.4893 150.264 40.356C149.954 40.2227 149.709 40.0307 149.528 39.78C149.346 39.5293 149.253 39.2333 149.248 38.892H150.448C150.464 39.1213 150.544 39.3027 150.688 39.436C150.837 39.5693 151.04 39.636 151.296 39.636C151.557 39.636 151.762 39.5747 151.912 39.452C152.061 39.324 152.136 39.1587 152.136 38.956C152.136 38.7907 152.085 38.6547 151.984 38.548C151.882 38.4413 151.754 38.3587 151.6 38.3C151.45 38.236 151.242 38.1667 150.976 38.092C150.613 37.9853 150.317 37.8813 150.088 37.78C149.864 37.6733 149.669 37.516 149.504 37.308C149.344 37.0947 149.264 36.812 149.264 36.46C149.264 36.1293 149.346 35.8413 149.512 35.596C149.677 35.3507 149.909 35.164 150.208 35.036C150.506 34.9027 150.848 34.836 151.232 34.836C151.808 34.836 152.274 34.9773 152.632 35.26C152.994 35.5373 153.194 35.9267 153.232 36.428H152C151.989 36.236 151.906 36.0787 151.752 35.956C151.602 35.828 151.402 35.764 151.152 35.764C150.933 35.764 150.757 35.82 150.624 35.932C150.496 36.044 150.432 36.2067 150.432 36.42C150.432 36.5693 150.48 36.6947 150.576 36.796C150.677 36.892 150.8 36.972 150.944 37.036C151.093 37.0947 151.301 37.164 151.568 37.244C151.93 37.3507 152.226 37.4573 152.456 37.564C152.685 37.6707 152.882 37.8307 153.048 38.044C153.213 38.2573 153.296 38.5373 153.296 38.884C153.296 39.1827 153.218 39.46 153.064 39.716C152.909 39.972 152.682 40.1773 152.384 40.332C152.085 40.4813 151.73 40.556 151.32 40.556Z" fill="#111111"/>
</svg>
